<?xml version="1.0" encoding="UTF-8"?>
<svg version="1.1" xmlns="http://www.w3.org/2000/svg" width="64" height="64">
  <path d="M0 0 C6.13583166 3.75770418 10.16761813 9.08030664 12.078125 16.01171875 C14.37321661 29.20849553 6.76669656 40.96029721 -0.49047852 51.39916992 C-2.43983377 54.12826728 -4.42460515 56.80178541 -6.5 59.4375 C-6.98855469 60.08074219 -7.47710937 60.72398438 -7.98046875 61.38671875 C-9.5 62.4375 -9.5 62.4375 -11.91796875 62.41796875 C-21.78643718 58.67063808 -28.99808022 41.80376718 -33.171875 32.8515625 C-35.93316312 25.75342774 -36.40646068 18.64537847 -33.5703125 11.50390625 C-30.70513587 5.97223311 -26.71242614 1.64917392 -20.96875 -0.90234375 C-14.28069099 -2.69076459 -6.40468071 -2.84515624 0 0 Z M-20.5 14.4375 C-23.09107284 17.85300511 -23.00288306 21.27075464 -22.5 25.4375 C-20.71523759 28.40989241 -18.64791945 30.86354027 -15.5 32.4375 C-10.56621607 32.93087839 -8.43080765 32.96213704 -4.0625 30.5 C-1.1716535 27.04508589 -0.47494115 25.06774803 -0.26171875 20.65625 C-0.64553809 17.08232569 -2.13240274 15.06105372 -4.5 12.4375 C-10.14890336 8.29497087 -15.49712578 10.34423927 -20.5 14.4375 Z " fill="#77de5b" transform="translate(43.5,1.5625)"/>
</svg>