<?xml version="1.0" encoding="UTF-8"?>
<svg version="1.1" xmlns="http://www.w3.org/2000/svg" width="64" height="64">
<path d="M0 0 C6.39436277 3.41414149 12.44392633 7.17776344 18.4375 11.25 C20.01888034 12.31867215 21.60088094 13.38642723 23.18359375 14.453125 C23.86993896 14.91879883 24.55628418 15.38447266 25.26342773 15.86425781 C28.70910769 18.11777997 30.85834173 18.42478546 35 18 C37.72168018 16.76731741 40.14583786 15.15918009 42.625 13.5 C43.31924072 13.05092285 44.01348145 12.6018457 44.72875977 12.13916016 C46.82963059 10.774595 48.91653845 9.39097145 51 8 C51.93706787 7.37689941 51.93706787 7.37689941 52.89306641 6.74121094 C55.55053072 4.97247955 58.2013185 3.19533357 60.83984375 1.3984375 C63 0 63 0 64 0 C64.04937279 4.66307014 64.08570627 9.32598873 64.10986328 13.98925781 C64.11993188 15.57619883 64.13358767 17.16312125 64.15087891 18.75 C64.17509001 21.02869247 64.18647422 23.30714006 64.1953125 25.5859375 C64.20563507 26.29744965 64.21595764 27.00896179 64.22659302 27.74203491 C64.22699422 29.49631665 64.12202209 31.24996709 64 33 C61.32806098 35.67193902 60.02973245 35.25316128 56.296875 35.25878906 C55.10223633 35.26509338 53.90759766 35.27139771 52.67675781 35.27789307 C51.38092773 35.2738446 50.08509766 35.26979614 48.75 35.265625 C47.41243418 35.26697178 46.07486883 35.26891243 44.73730469 35.27142334 C41.93289534 35.274374 39.12861331 35.27007894 36.32421875 35.26074219 C32.72595078 35.24934754 29.12798114 35.25590734 25.52972412 35.26788712 C22.76739242 35.27510736 20.00513167 35.27281706 17.24279785 35.26763153 C15.26961067 35.26564475 13.29642074 35.27172842 11.32324219 35.27789307 C10.12860352 35.27158875 8.93396484 35.26528442 7.703125 35.25878906 C6.64770508 35.25719788 5.59228516 35.25560669 4.50488281 35.25396729 C2 35 2 35 0 33 C-0.17495606 30.49079154 -0.23169569 28.09375059 -0.1953125 25.5859375 C-0.1924826 24.85629791 -0.18965271 24.12665833 -0.18673706 23.37490845 C-0.17553002 21.04143972 -0.1504251 18.70835297 -0.125 16.375 C-0.11497085 14.79427637 -0.10584489 13.21354673 -0.09765625 11.6328125 C-0.07558905 7.75506086 -0.04105615 3.87759522 0 0 Z " fill="#77de5b" transform="translate(0,21)"/>
<path d="M0 0 C1.19463867 -0.00630432 2.38927734 -0.01260864 3.62011719 -0.019104 C4.91594727 -0.01505554 6.21177734 -0.01100708 7.546875 -0.00683594 C8.88444082 -0.00818272 10.22200617 -0.01012336 11.55957031 -0.01263428 C14.36397966 -0.01558494 17.16826169 -0.01128987 19.97265625 -0.00195312 C23.57092422 0.00944153 27.16889386 0.00288172 30.76715088 -0.00909805 C33.52948258 -0.0163183 36.29174333 -0.014028 39.05407715 -0.00884247 C41.02726433 -0.00685568 43.00045426 -0.01293935 44.97363281 -0.019104 C46.16827148 -0.01279968 47.36291016 -0.00649536 48.59375 0 C50.17687988 0.00238678 50.17687988 0.00238678 51.79199219 0.00482178 C54.296875 0.25878906 54.296875 0.25878906 56.296875 2.25878906 C56.671875 5.63378906 56.671875 5.63378906 56.296875 9.25878906 C51.94986883 14.39076775 45.90503314 17.75246703 40.359375 21.44628906 C39.27462891 22.18298828 38.18988281 22.9196875 37.07226562 23.67871094 C36.02361328 24.37931641 34.97496094 25.07992187 33.89453125 25.80175781 C32.94070557 26.44137451 31.98687988 27.08099121 31.00415039 27.73999023 C28.28114683 29.26761267 26.40409262 30.05275435 23.296875 30.25878906 C21.2265625 29.51538086 21.2265625 29.51538086 19.171875 28.27050781 C18.39457031 27.80435059 17.61726563 27.33819336 16.81640625 26.85791016 C15.98496094 26.3302002 15.15351563 25.80249023 14.296875 25.25878906 C13.41386719 24.69885254 12.53085937 24.13891602 11.62109375 23.56201172 C8.82801567 21.75806649 6.06013108 19.92054505 3.296875 18.07128906 C1.86794922 17.12866211 1.86794922 17.12866211 0.41015625 16.16699219 C-0.49347656 15.56435547 -1.39710938 14.96171875 -2.328125 14.34082031 C-3.14539063 13.79659424 -3.96265625 13.25236816 -4.8046875 12.69165039 C-6.703125 11.25878906 -6.703125 11.25878906 -7.703125 9.25878906 C-7.890625 5.75878906 -7.890625 5.75878906 -7.703125 2.25878906 C-5.03118598 -0.41314995 -3.73285745 0.00562778 0 0 Z " fill="#77de5b" transform="translate(7.703125,7.7412109375)"/>
</svg>
