<?xml version="1.0" encoding="UTF-8"?>
<svg version="1.1" xmlns="http://www.w3.org/2000/svg" width="64" height="64">
<path d="M0 0 C2.61328125 0.48046875 2.61328125 0.48046875 4.6328125 2.9296875 C5.22449219 3.99832031 5.81617187 5.06695312 6.42578125 6.16796875 C7.03035156 7.22371094 7.63492187 8.27945312 8.2578125 9.3671875 C9.59347213 12.43497058 10.09356146 14.19373191 9.61328125 17.48046875 C7.61328125 19.29296875 7.61328125 19.29296875 5.61328125 20.48046875 C7.22201842 26.91541742 10.46439185 32.28418455 15.9375 36.1015625 C20.03377916 38.59999124 20.03377916 38.59999124 24.61328125 39.48046875 C26.25004382 37.52044065 26.25004382 37.52044065 27.61328125 35.48046875 C33.94892993 35.75007082 39.01745242 38.02271203 43.61328125 42.48046875 C44.640625 44.91796875 44.640625 44.91796875 44.61328125 47.48046875 C42.8125 49.68359375 42.8125 49.68359375 40.30078125 51.73046875 C39.47964844 52.41625 38.65851562 53.10203125 37.8125 53.80859375 C34.55959571 56.28149435 32.21576381 56.95372793 28.078125 56.87890625 C15.38715765 54.82743451 3.86273832 44.04186235 -3.59375 34.15625 C-7.38377995 28.50010509 -11.4967733 22.22100921 -12.19921875 15.29296875 C-11.00411646 9.68518107 -6.06192338 1.22032173 0 0 Z " fill="#77de5b" transform="translate(15.38671875,3.51953125)"/>
<path d="M0 0 C6.67018956 -0.7250206 11.43423427 1.35378054 17 5 C21.4349106 8.90606143 24.18563562 13.35531081 26 19 C26.1875 22.9375 26.1875 22.9375 26 26 C24.35 26 22.7 26 21 26 C20.91363281 25.43152344 20.82726562 24.86304687 20.73828125 24.27734375 C19.70157071 18.58019131 18.22638706 14.09863732 14 10 C9.62754425 7.03394239 5.27493259 5.52749326 0 5 C0 3.35 0 1.7 0 0 Z " fill="#77de5b" transform="translate(34,4)"/>
<path d="M0 0 C3.75626559 -0.35773958 5.73929307 -0.13556761 9.125 1.625 C12.26358304 4.21774251 14.12204834 6.3885545 16 10 C16.25 13.375 16.25 13.375 16 16 C14.35 16 12.7 16 11 16 C10.38125 14.3603125 10.38125 14.3603125 9.75 12.6875 C8.36845107 9.47685812 7.14663476 7.71634624 4 6 C1.85266073 5.29485154 1.85266073 5.29485154 0 5 C0 3.35 0 1.7 0 0 Z " fill="#77de5b" transform="translate(34,14)"/>
</svg>
